<svg xmlns="http://www.w3.org/2000/svg" viewBox="0 0 36 36" id="code-forces">
  <path fill="#EFEFEF" d="M27.417 3.914C20.502 4.043 15.685.549 12.353.612S2.057 2.721 2.344 18.052s9.744 17.404 13.41 17.336c17.163-.321 23.911-31.703 11.663-31.474z"></path>
  <path fill="#A4AFC1" d="m2.376 24.874.707-.707 1.414 1.414-.707.707zM6.441 28.94l.707-.708 1.415 1.415-.707.707zM2.2 29.647l1.414-1.415.707.707-1.415 1.415zM25.078 13.217c-.827 0-1.5-.673-1.5-1.5s.673-1.5 1.5-1.5 1.5.673 1.5 1.5-.673 1.5-1.5 1.5zm0-2a.5.5 0 1 0 0 1 .5.5 0 0 0 0-1z"></path>
  <path fill="#2FDF84" d="M29.25 24.875V18c0-.759-.63-1.375-1.406-1.375h-3.188c-.776 0-1.406.616-1.406 1.375v6.875c0 .759.63 1.375 1.406 1.375h3.188c.776 0 1.406-.616 1.406-1.375z"></path>
  <path fill="#F3F3F1" d="M19.375 26.25c.759 0 1.375-.616 1.375-1.375v-13.75c0-.759-.616-1.375-1.375-1.375h-2.75c-.758 0-1.375.616-1.375 1.375v13.75c0 .759.617 1.375 1.375 1.375h2.75zM6.75 24.875c0 .759.631 1.375 1.406 1.375h3.188c.776 0 1.406-.616 1.406-1.375V15.25c0-.759-.63-1.375-1.406-1.375H8.156c-.775 0-1.406.616-1.406 1.375v9.625z"></path>
  <path fill="#00B871" d="M25.5 24.875V18c0-.759.63-1.375 1.406-1.375h-2.25c-.776 0-1.406.616-1.406 1.375v6.875c0 .759.63 1.375 1.406 1.375h2.25c-.776 0-1.406-.616-1.406-1.375z"></path>
  <path fill="#D5DBE1" d="M17.5 24.875v-13.75c0-.759.617-1.375 1.375-1.375h-2.25c-.758 0-1.375.616-1.375 1.375v13.75c0 .759.617 1.375 1.375 1.375h2.25a1.376 1.376 0 0 1-1.375-1.375zm-8.5 0V15.25c0-.759.631-1.375 1.406-1.375h-2.25c-.775 0-1.406.616-1.406 1.375v9.625c0 .759.631 1.375 1.406 1.375h2.25C9.631 26.25 9 25.634 9 24.875z"></path>
  <path d="M27.844 27h-3.188c-1.189 0-2.156-.953-2.156-2.125V18c0-1.172.967-2.125 2.156-2.125h3.188c1.189 0 2.156.953 2.156 2.125v6.875C30 26.047 29.033 27 27.844 27zm-3.188-9.625c-.362 0-.656.28-.656.625v6.875c0 .345.294.625.656.625h3.188c.362 0 .656-.28.656-.625V18c0-.345-.294-.625-.656-.625h-3.188zM19.375 27h-2.75a2.127 2.127 0 0 1-2.125-2.125v-13.75C14.5 9.953 15.453 9 16.625 9h2.75c1.172 0 2.125.953 2.125 2.125v13.75A2.127 2.127 0 0 1 19.375 27zm-2.75-16.5a.625.625 0 0 0-.625.625v13.75c0 .345.28.625.625.625h2.75c.345 0 .625-.28.625-.625v-13.75a.625.625 0 0 0-.625-.625h-2.75zM11.344 27H8.156C6.967 27 6 26.047 6 24.875V15.25c0-1.172.967-2.125 2.156-2.125h3.188c1.189 0 2.156.953 2.156 2.125v9.625c0 1.172-.967 2.125-2.156 2.125zM8.156 14.625c-.362 0-.656.28-.656.625v9.625c0 .345.294.625.656.625h3.188c.362 0 .656-.28.656-.625V15.25c0-.345-.294-.625-.656-.625H8.156z"></path>
</svg>
